<svg xmlns="http://www.w3.org/2000/svg" xmlns:xlink="http://www.w3.org/1999/xlink" version="1.1" x="0px" y="0px"
     viewBox="0 0 80 100" enable-background="new 0 0 80 80" xml:space="preserve"><g><path fill="#000000" d="M65,23.75h-4v40h4c2.75,0,5-2.25,5-5v-30C70,26,67.75,23.75,65,23.75z"/><path
        fill="#000000" d="M10,28.75v30c0,2.75,2.25,5,5,5h4v-40h-4C12.25,23.75,10,26,10,28.75z"/><path fill="#000000"
                                                                                                      d="M50,23.75v-4.036c0-1.905-1.559-3.464-3.464-3.464H33.464c-1.905,0-3.464,1.559-3.464,3.464v4.036h-9v40h38   v-40H50z M35,20.25h10v3.5H35V20.25z M41.717,57.526h-3.433v-3.434h3.433V57.526z M47.716,43.085   c-0.662,1.083-1.775,2.279-3.336,3.585c-1.015,0.838-1.723,1.701-2.126,2.587c-0.403,0.887-0.586,1.958-0.547,3.217h-3.433   c-0.053-1.774,0.215-3.282,0.8-4.529c0.584-1.245,1.599-2.461,3.043-3.646c1.04-0.839,1.782-1.621,2.224-2.345   c0.442-0.726,0.663-1.513,0.663-2.363c0-1.307-0.423-2.348-1.269-3.127c-0.832-0.767-1.965-1.15-3.395-1.15   c-1.77,0-3.096,0.448-3.98,1.348c-0.885,0.898-1.43,2.354-1.639,4.366h-3.434c0.143-2.73,1.001-4.839,2.576-6.324   c1.572-1.485,3.732-2.229,6.477-2.229c2.497,0,4.516,0.656,6.059,1.968c1.541,1.311,2.313,3.028,2.313,5.148   C48.712,40.836,48.38,42,47.716,43.085z"/></g>
    <text x="0" y="95" fill="#000000" font-size="5px" font-weight="bold"
          font-family="'Helvetica Neue', Helvetica, Arial-Unicode, Arial, Sans-serif"></text>
    <text x="0" y="100" fill="#000000" font-size="5px" font-weight="bold"
          font-family="'Helvetica Neue', Helvetica, Arial-Unicode, Arial, Sans-serif"></text></svg>